<?xml version="1.0" standalone="no"?>
<!DOCTYPE svg PUBLIC "-//W3C//DTD SVG 20010904//EN"
 "http://www.w3.org/TR/2001/REC-SVG-20010904/DTD/svg10.dtd">
<svg version="1.0" xmlns="http://www.w3.org/2000/svg"
 width="3509.000000pt" height="2482.000000pt" viewBox="0 0 3509.000000 2482.000000"
 preserveAspectRatio="xMidYMid meet">

<g transform="translate(0.000000,2482.000000) scale(0.100000,-0.100000)"
fill="#000000" stroke="none">
<path d="M26170 18440 l0 -189 -137 -3 -138 -3 -3 -837 -2 -838 140 0 140 0 0
-175 0 -175 1335 0 1335 0 0 115 0 115 260 0 260 0 0 60 0 60 190 0 190 0 0
35 0 35 380 0 380 0 0 -120 0 -120 -355 0 -355 0 0 -355 0 -355 -2615 0 -2615
0 0 355 0 355 -450 0 -450 0 0 -365 0 -365 -5800 0 -5800 0 0 360 0 360 -450
0 -450 0 0 -360 0 -360 -2615 0 -2615 0 0 360 0 360 -360 0 -360 0 0 115 0
115 380 0 380 0 0 -30 0 -30 190 0 190 0 0 -60 0 -60 260 0 260 0 0 -115 0
-115 1340 0 1340 0 0 175 0 175 135 0 135 0 0 835 0 835 -135 0 -135 0 0 195
0 195 -1340 0 -1340 0 0 -105 0 -105 -257 -2 -258 -3 -3 -27 -3 -28 -190 0
-189 0 0 -60 0 -60 -1005 0 -1005 0 0 -805 0 -805 345 0 345 0 0 -115 0 -115
-905 0 -905 0 0 -360 0 -360 -387 -2 -388 -3 0 -4740 0 -4740 388 -3 387 -2 0
-230 0 -230 895 0 895 0 0 -25 0 -25 -280 0 -280 0 0 -435 0 -435 130 0 130 0
2 -367 3 -368 137 -3 138 -3 2 -162 3 -162 217 -3 218 -2 0 165 0 165 110 0
110 0 0 370 0 370 75 0 75 0 0 435 0 435 -260 0 -260 0 0 25 0 25 500 0 500 0
0 270 0 270 2630 0 2630 0 0 -270 0 -270 450 0 450 0 0 265 0 265 5800 0 5800
0 0 -260 0 -260 448 2 447 3 3 258 2 257 120 0 c73 0 120 4 120 10 0 7 507 10
1500 10 l1500 0 0 -500 0 -500 -207 -2 -208 -3 0 -260 0 -260 208 -3 207 -2 0
-145 0 -145 -280 0 -280 0 0 -335 0 -335 970 0 970 0 0 335 0 335 -220 0 -220
0 0 145 0 145 130 0 130 0 0 265 0 265 -130 0 -130 0 0 500 0 500 535 0 535 0
2 -267 3 -268 1530 0 1530 0 3 233 2 232 385 0 385 0 0 4740 0 4740 -385 0
-385 0 0 360 0 360 -905 0 -905 0 0 120 0 120 345 0 345 0 -2 803 -3 802
-1007 3 -1008 2 0 55 0 55 -190 0 -190 0 0 30 0 30 -260 0 -260 0 0 105 0 105
-1335 0 -1335 0 0 -190z m2543 -1013 l2 -1077 -1212 0 -1213 0 0 1080 0 1080
1210 -2 1211 -3 2 -1078z m-19293 -12 l0 -1085 -1210 0 -1210 0 0 1085 0 1085
1210 0 1210 0 0 -1085z m19810 25 l0 -860 -195 0 -195 0 0 860 0 860 195 0
195 0 0 -860z m-22352 -17 l-3 -858 -197 -3 -198 -2 0 860 0 860 200 0 200 0
-2 -857z m22737 42 l0 -770 -127 -3 -128 -3 0 776 0 776 128 -3 127 -3 0 -770z
m-23260 -10 l0 -770 -127 -3 -128 -3 0 776 0 776 128 -3 127 -3 0 -770z
m19813 -47 l-3 -713 -72 -3 -73 -3 0 716 0 715 75 0 75 0 -2 -712z m5462 32
l0 -680 -280 0 -280 0 0 475 0 475 -285 0 -285 0 0 -475 0 -475 -377 2 -378 3
-3 678 -2 677 945 0 945 0 0 -680z m-25660 -10 l0 -680 -380 0 -380 0 0 460 0
460 -280 0 -280 0 0 -460 0 -460 -285 0 -285 0 0 680 0 680 945 0 945 0 0
-680z m3725 -35 l0 -710 -72 -3 -73 -3 0 716 0 716 73 -3 72 -3 0 -710z
m21245 -1035 l0 -1230 -155 0 -155 0 0 1230 0 1230 155 0 155 0 0 -1230z
m-25850 -25 l0 -1215 -160 0 -160 0 0 1215 0 1215 160 0 160 0 0 -1215z
m19340 -1323 l0 -1269 137 -6 c75 -4 1818 -7 3875 -7 l3738 0 0 700 0 700
-555 0 -555 0 0 575 0 575 840 0 840 0 0 -5210 0 -5210 -1405 0 -1405 0 0 480
0 480 1115 0 1115 0 0 763 0 764 -1017 -4 c-3959 -15 -6589 -20 -6596 -14 -4
4 -6 129 -5 277 l3 269 3803 3 3802 2 0 2195 c0 1207 -1 2196 -2 2196 -10 5
-7447 27 -7570 23 l-158 -7 0 -3713 0 -3714 -325 0 -325 0 0 5203 c0 2862 3
5207 7 5210 3 4 150 7 325 7 l318 0 0 -1268z m6070 693 l0 -575 -295 0 -295 0
0 568 c0 313 3 572 7 575 3 4 136 7 295 7 l288 0 0 -575z m-25850 -15 l0 -570
-555 0 -555 0 0 -700 0 -700 3870 0 3870 0 0 1270 0 1270 325 0 325 0 0 -5210
0 -5210 -322 2 -323 3 -2 510 c-1 281 -2 1954 -2 3719 l-1 3209 -2797 -6
c-1539 -4 -3278 -10 -3865 -14 l-1068 -6 0 -2199 0 -2198 1125 0 1125 0 0
-265 0 -265 -1130 0 -1130 0 0 -760 0 -760 1120 0 1120 0 -2 -482 -3 -483
-1405 0 -1405 0 -3 5208 -2 5207 845 0 845 0 0 -570z m1150 0 l0 -570 -295 0
-295 0 0 570 0 570 295 0 295 0 0 -570z m23990 -345 l0 -215 -2617 2 -2618 3
-3 213 -2 212 2620 0 2620 0 0 -215z m3735 -4405 l0 -4615 -322 -3 -323 -2 0
250 0 250 165 0 165 0 0 4160 0 4160 -165 0 -165 0 0 210 0 210 323 -2 322 -3
0 -4615z m-22365 4395 l0 -215 -2615 0 -2615 0 0 215 0 215 2615 0 2615 0 0
-215z m12500 0 l0 -215 -5800 0 -5800 0 0 215 0 215 5800 0 5800 0 0 -215z
m-20822 3 l-3 -203 -167 -3 -168 -2 0 -4160 0 -4160 168 -2 167 -3 3 -247 2
-248 -325 0 -325 0 0 4615 0 4615 325 0 325 0 -2 -202z m30252 -4358 l0 -4040
-105 0 -105 0 0 4040 0 4040 105 0 105 0 0 -4040z m-30250 -10 l0 -4040 -110
0 -110 0 0 4033 c0 2219 3 4037 7 4040 3 4 53 7 110 7 l103 0 0 -4040z m29210
3465 l0 -575 -3745 0 -3745 0 0 565 0 565 50 0 c28 0 50 5 50 10 0 7 1220 10
3695 10 l3695 -1 0 -574z m-20890 -20 l0 -575 -3750 0 -3750 0 0 575 0 575
3750 0 3750 0 0 -575z m12500 -3455 l0 -4030 -1385 0 -1385 0 0 1965 0 1965
-3025 0 -3025 0 0 -1965 0 -1965 -1390 0 -1390 0 0 4030 0 4030 5800 0 5800 0
0 -4030z m6943 2193 l1437 -6 0 -1009 0 -1008 -220 0 -220 0 0 115 0 115 -215
0 -215 0 0 330 0 330 -1040 0 -1040 0 0 -85 0 -85 -160 0 -160 0 0 65 0 65
-1345 0 -1345 0 0 -65 0 -65 -90 0 -90 0 0 -910 0 -910 90 0 90 0 0 -110 0
-110 1345 0 1345 0 0 110 0 110 160 0 160 0 0 -85 0 -85 1040 0 1040 0 0 200
0 200 215 0 215 0 0 130 0 130 220 0 220 0 0 -760 0 -760 -3740 0 -3740 0 0
2087 0 2086 2303 -6 c1266 -4 2949 -10 3740 -14z m-19443 -1013 l0 -1020 -105
0 -105 0 0 115 0 115 -215 0 -215 0 0 330 0 330 -1035 0 -1035 0 0 -85 0 -85
-160 0 -160 0 0 60 0 60 -1350 0 -1350 0 0 -60 0 -59 -87 -3 -88 -3 -3 -907
-2 -908 90 0 90 0 0 -110 0 -110 1350 0 1350 0 0 110 0 110 160 0 160 0 0 -90
0 -90 1035 0 1035 0 0 200 0 200 215 0 215 0 0 130 0 130 105 0 105 0 0 -755
0 -755 -3740 0 -3740 0 0 2075 0 2075 1163 1 c639 1 1972 5 2962 8 990 4 2150
8 2578 9 l777 2 0 -1020z m19883 -1200 l-1 -955 -911 -3 -911 -2 0 960 0 960
913 -2 912 -3 -2 -955z m-20643 -15 l0 -955 -915 0 -915 0 0 955 0 955 915 0
915 0 0 -955z m18250 -30 l0 -955 -1225 0 -1225 0 0 955 0 955 1225 0 1225 0
0 -955z m-20650 -15 l0 -960 -1222 2 -1223 3 -3 945 c-1 520 0 951 3 958 3 9
258 12 1225 12 l1220 0 0 -960z m18080 60 l0 -780 -25 0 -25 0 0 780 0 780 25
0 25 0 0 -780z m3020 0 l0 -780 -165 0 -165 0 0 780 0 780 165 0 165 0 0 -780z
m-23670 -15 l0 -785 -25 0 -25 0 0 785 0 785 25 0 25 0 0 -785z m3020 0 l0
-785 -160 0 -160 0 0 785 0 785 160 0 160 0 0 -785z m23020 -120 l0 -425 -150
0 -150 0 0 425 0 425 150 0 150 0 0 -425z m-20640 -10 l0 -425 -155 0 -155 0
0 425 0 425 155 0 155 0 0 -425z m21130 30 l0 -185 -180 0 -180 0 0 185 0 185
180 0 180 0 0 -185z m-20800 -15 l0 -180 -105 0 -105 0 0 180 0 180 105 0 105
0 0 -180z m9610 -1980 l0 -1900 -2905 0 -2905 0 0 1900 0 1900 2905 0 2905 0
0 -1900z m-9610 -245 l0 -276 -2457 6 c-1352 3 -2540 8 -2640 11 l-183 6 0
264 0 264 2640 0 2640 0 0 -275z m20890 -1000 l0 -635 -3745 0 -3745 0 0 625
0 625 1003 1 c551 1 1812 5 2802 8 990 4 2224 8 2743 9 l942 2 0 -635z
m-24200 610 c1488 -3 2841 -8 3008 -11 l302 -6 0 -624 0 -624 -3745 0 -3745 0
0 641 0 642 738 -7 c405 -3 1954 -8 3442 -11z m21960 -1590 l0 -215 -2627 2
-2628 3 -3 213 -2 212 2630 0 2630 0 0 -215z m-18650 -10 l0 -215 -2630 0
-2630 0 0 215 0 215 2630 0 2630 0 0 -215z m12495 -5 l0 -215 -5797 -3 -5798
-2 0 217 0 218 5797 0 5798 0 0 -215z m4955 -1505 l0 -1185 -342 2 -343 3 -3
1183 -2 1182 345 0 345 0 0 -1185z m-23750 610 c0 -25 -1 -25 -90 -25 -89 0
-90 0 -90 25 0 25 1 25 90 25 89 0 90 0 90 -25z m440 -460 l0 -305 -555 0
-555 0 0 305 0 305 555 0 555 0 0 -305z m22498 -232 l-3 -178 -162 -3 -163 -2
0 180 0 180 165 0 165 0 -2 -177z m1122 -3 l0 -180 -90 0 -90 0 0 180 0 180
90 0 90 0 0 -180z m-23770 -505 l0 -305 -345 0 -345 0 0 305 0 305 345 0 345
0 0 -305z m22648 -377 l-3 -213 -215 0 -215 0 -3 200 c-1 110 0 205 2 212 4
10 55 13 221 13 l215 0 -2 -212z m1252 -3 l0 -215 -155 0 -155 0 0 215 0 215
155 0 155 0 0 -215z m-24080 -160 l0 -135 -135 0 -135 0 0 135 0 135 135 0
135 0 0 -135z"/>
<path d="M26490 17430 l0 -580 425 0 425 0 0 580 0 580 -425 0 -425 0 0 -580z
m770 0 l0 -500 -345 0 -345 0 0 500 0 500 345 0 345 0 0 -500z"/>
<path d="M8350 17430 l0 -580 425 0 425 0 0 580 0 580 -425 0 -425 0 0 -580z
m770 0 l0 -500 -345 0 -345 0 0 500 0 500 345 0 345 0 0 -500z"/>
</g>
</svg>
