<?xml version="1.0" standalone="no"?>
<!DOCTYPE svg PUBLIC "-//W3C//DTD SVG 20010904//EN"
 "http://www.w3.org/TR/2001/REC-SVG-20010904/DTD/svg10.dtd">
<svg version="1.0" xmlns="http://www.w3.org/2000/svg"
 width="2481.000000pt" height="3508.000000pt" viewBox="0 0 2481.000000 3508.000000"
 preserveAspectRatio="xMidYMid meet">

<g transform="translate(0.000000,3508.000000) scale(0.100000,-0.100000)"
fill="#000000" stroke="none">
<path d="M13350 27050 l0 -1290 -22 -4 c-267 -51 -427 -132 -593 -300 -137
-138 -220 -285 -267 -473 -18 -71 -22 -117 -22 -238 -1 -162 16 -253 71 -387
96 -239 306 -450 543 -548 l65 -27 3 -146 3 -147 -256 0 -255 0 0 -195 0 -195
-170 0 -169 0 -3 148 -3 147 -552 3 -553 2 0 -4740 0 -4740 -140 0 c-133 0
-140 -1 -140 -20 0 -20 -7 -20 -2995 -20 -2988 0 -2995 0 -2995 20 0 20 -7 20
-425 20 l-425 0 0 -540 0 -540 565 0 565 0 0 -435 0 -435 115 0 115 0 0 -90 0
-90 -275 0 -275 0 0 -250 0 -250 470 0 469 0 3 -138 3 -137 370 -6 c204 -3
1660 -7 3238 -8 l2867 -1 0 1475 0 1475 200 0 200 0 0 -140 0 -140 191 0 191
0 -69 -36 c-189 -99 -351 -270 -443 -466 -235 -503 -27 -1095 475 -1346 76
-38 210 -80 280 -88 l55 -7 0 -1293 0 -1294 100 0 100 0 0 1290 0 1290 23 4
c12 3 51 10 86 16 184 33 374 135 516 277 194 193 297 441 298 713 1 137 -9
200 -54 336 -69 212 -225 410 -417 529 -40 24 -62 44 -62 56 0 18 24 19 670
19 641 0 670 -1 670 -18 0 -11 -14 -25 -33 -34 -59 -28 -195 -137 -250 -201
-151 -174 -232 -357 -257 -584 -25 -232 44 -491 184 -687 85 -119 242 -254
374 -320 l52 -26 0 -1331 0 -1330 98 3 97 3 3 1298 c2 1230 3 1298 20 1293 9
-2 41 -8 69 -11 l53 -7 2 -1286 3 -1287 98 -3 97 -3 0 1294 0 1294 57 12 c31
6 60 11 65 11 4 0 8 -587 8 -1305 l0 -1305 100 0 100 0 0 1348 1 1347 57 33
c212 122 391 363 459 617 23 87 26 120 26 250 0 130 -3 163 -26 247 -74 281
-244 501 -495 644 l-77 44 253 0 252 0 0 210 0 210 -45 0 -45 0 0 4700 0 4700
-220 0 -220 0 0 160 0 160 53 26 c131 67 287 200 373 320 202 281 242 671 104
995 -78 184 -249 378 -412 468 l-48 26 0 1348 0 1347 -100 0 -100 0 0 -1306 0
-1306 -32 6 c-18 4 -48 10 -65 13 l-33 6 0 1293 0 1294 -100 0 -100 0 0 -1289
0 -1288 -61 -7 c-33 -4 -67 -10 -75 -13 -12 -4 -14 171 -14 1296 l0 1301 -100
0 -100 0 0 -1329 0 -1329 -67 -37 c-418 -229 -624 -694 -509 -1148 70 -275
264 -524 504 -646 l42 -21 0 -170 0 -170 -675 0 -675 0 0 185 0 184 62 42
c153 104 300 281 367 443 64 154 75 213 75 406 0 161 -2 182 -28 265 -52 175
-124 300 -241 424 -169 178 -356 275 -607 316 l-38 6 0 1289 0 1290 -100 0
-100 0 0 -1290z m158 -22 l2 -1268 -60 0 -60 0 0 1270 0 1271 58 -3 57 -3 3
-1267z m1992 -13 l0 -1284 -41 -11 c-22 -6 -47 -14 -55 -17 -12 -4 -14 169
-14 1296 l0 1301 55 0 55 0 0 -1285z m348 13 l2 -1268 -60 0 -60 0 0 1270 0
1271 58 -3 57 -3 3 -1267z m322 -42 l0 -1314 -55 21 -55 20 0 1293 0 1294 55
0 55 0 0 -1314z m-2485 -1336 c327 -84 587 -343 676 -675 31 -114 31 -345 1
-458 -25 -90 -85 -224 -133 -294 -59 -86 -230 -253 -260 -253 -5 0 -9 150 -9
360 l0 360 -415 0 -415 0 0 -410 0 -410 -55 24 c-362 161 -592 561 -545 952
27 226 118 411 278 566 148 144 318 227 537 262 65 10 261 -3 340 -24z m2190
19 c326 -45 615 -269 735 -569 67 -166 87 -365 52 -530 -45 -218 -158 -410
-316 -538 -62 -51 -172 -122 -188 -122 -4 0 -8 176 -8 390 l0 390 -420 0 -420
0 0 -380 c0 -209 -4 -380 -8 -380 -18 0 -130 79 -189 134 -117 108 -225 286
-268 441 -26 93 -32 322 -10 426 96 480 556 806 1040 738z m-1995 -1619 l0
-560 -335 0 -335 0 0 560 0 560 335 0 335 0 0 -560z m2190 0 l0 -560 -340 0
-340 0 0 560 0 560 340 0 340 0 0 -560z m-3872 -842 l-3 -103 -212 -3 -213 -2
0 -540 0 -540 210 0 210 0 0 -4027 c0 -2216 3 -4038 6 -4050 l6 -23 -476 0
-476 0 0 4695 0 4695 475 0 476 0 -3 -102z m4310 -575 l-3 -388 -1602 -3
-1602 -2 -3 -68 -3 -67 -722 -3 -723 -2 0 460 0 460 2330 0 2330 0 -2 -387z
m-3 -578 l0 -110 -497 -3 -498 -2 0 -835 0 -835 343 -2 342 -3 0 -2660 0
-2660 -1407 -3 -1408 -2 0 3615 0 3615 1563 -2 1562 -3 0 -110z m-3205 -3570
l0 -3535 -510 0 -510 0 0 3535 0 3535 510 0 510 0 0 -3535z m3210 2620 l0
-755 -460 0 -460 0 0 755 0 755 460 0 460 0 0 -755z m-5 -3500 l0 -2660 -112
-3 -113 -3 0 2666 0 2666 113 -3 112 -3 0 -2660z m-3605 -3130 l0 -395 -110 0
c-103 0 -110 -1 -110 -20 0 -19 -7 -20 -200 -20 l-200 0 0 415 0 415 310 0
310 0 0 -395z m2077 385 l1533 0 0 -385 0 -385 -1760 0 -1760 0 0 392 0 391
227 -6 c124 -4 916 -7 1760 -7z m1623 -985 l0 -125 -1920 0 -1920 0 0 125 0
125 1920 0 1920 0 0 -125z m-4402 -497 l2 -458 -4035 0 -4035 0 0 453 c0 250
3 457 7 460 3 4 1818 6 4032 5 l4026 -3 3 -457z m1662 -268 l0 -560 -335 0
-335 0 0 560 0 560 335 0 335 0 0 -560z m2190 0 l0 -560 -335 0 -335 0 0 560
0 560 335 0 335 0 0 -560z m-2520 -640 l420 0 0 530 c0 292 3 530 8 530 4 0
37 -23 74 -50 157 -119 276 -292 334 -487 37 -126 44 -311 16 -443 -73 -355
-345 -635 -698 -721 -124 -30 -304 -30 -428 0 -332 80 -591 330 -686 662 -28
95 -38 289 -21 395 47 289 228 537 496 681 l60 32 3 -565 2 -564 420 0z m2653
1099 c123 -63 269 -190 347 -304 45 -65 115 -217 135 -295 23 -86 31 -291 15
-387 -56 -348 -324 -649 -662 -743 -227 -63 -453 -43 -663 60 -507 248 -681
875 -372 1348 57 89 167 202 247 255 l55 37 3 -535 2 -535 420 0 420 0 0 560
c0 308 2 560 5 560 3 0 25 -10 48 -21z m-9463 -1174 l0 -445 -385 0 -385 0 0
445 0 445 385 0 385 0 0 -445z m-850 35 l0 -380 -305 0 -305 0 0 380 0 380
305 0 305 0 0 -380z m5190 353 c0 -5 -279 -194 -620 -420 l-620 -413 -1490 0
-1490 0 0 413 c0 228 3 417 7 420 9 10 4213 9 4213 0z m1135 -848 l0 -850
-1157 -3 -1158 -2 0 405 0 405 675 450 676 450 482 -2 482 -3 0 -850z m-6537
-47 l3 -98 -106 0 -105 0 0 93 c0 52 3 97 7 101 4 4 50 5 103 4 l95 -3 3 -97z
m212 67 c0 -10 -11 -15 -35 -15 l-35 0 0 -75 0 -75 -50 0 -50 0 0 90 0 90 85
0 c69 0 85 -3 85 -15z m3928 -477 l-3 -393 -1627 -3 -1628 -2 0 395 0 395
1630 0 1630 0 -2 -392z m-3338 2 l0 -380 -285 0 -285 0 0 380 0 380 285 0 285
0 0 -380z m9728 -982 l-3 -1313 -55 0 -55 0 -3 1291 -2 1291 52 21 c29 11 56
21 61 21 4 1 6 -590 5 -1311z m-728 1268 l45 -13 3 -1287 2 -1286 -55 0 -55 0
0 1300 c0 715 3 1300 8 1300 4 0 27 -6 52 -14z m400 -1311 l0 -1275 -55 0 -55
0 0 1269 0 1270 53 4 c28 2 53 4 55 5 1 1 2 -572 2 -1273z m-2342 -2 l-3
-1268 -55 0 -55 0 -3 1268 -2 1267 60 0 60 0 -2 -1267z m-7708 1087 l0 -170
-435 0 -435 0 0 170 0 170 435 0 435 0 0 -170z"/>
</g>
</svg>
