<?xml version="1.0" standalone="no"?>
<!DOCTYPE svg PUBLIC "-//W3C//DTD SVG 20010904//EN"
 "http://www.w3.org/TR/2001/REC-SVG-20010904/DTD/svg10.dtd">
<svg version="1.0" xmlns="http://www.w3.org/2000/svg"
 width="2482.000000pt" height="3508.000000pt" viewBox="0 0 2482.000000 3508.000000"
 preserveAspectRatio="xMidYMid meet">

<g transform="translate(0.000000,3508.000000) scale(0.100000,-0.100000)"
fill="#E6B800" stroke="none">
<path d="M8180 26895 l0 -5475 -265 0 -265 0 0 1125 0 1125 -270 0 -270 0 0
-1805 0 -1805 660 0 660 0 0 -210 0 -209 -147 -3 -148 -3 -2 -40 c-1 -22 -2
-52 -2 -67 l-1 -28 -600 0 -600 0 0 670 0 670 -1230 0 -1231 0 3 -62 3 -63
1162 -3 1163 -2 2 -668 3 -667 5438 -3 5437 -2 0 780 0 780 495 0 495 0 0 60
0 60 -560 0 -560 0 0 -775 0 -775 -190 0 -190 0 0 70 0 70 -130 0 -130 0 0
210 0 210 235 0 235 0 0 435 0 435 -4325 0 -4325 0 0 115 0 115 4375 0 4375 0
0 130 0 130 -4375 0 -4375 0 0 5475 0 5475 -275 0 -275 0 0 -5475z m468 -287
l-3 -5683 -190 0 -190 0 -3 5683 -2 5682 195 0 195 0 -2 -5682z m-1078 -4348
l0 -1330 -190 0 -190 0 0 1330 0 1330 190 0 190 0 0 -1330z m618 -972 l3 -48
-230 0 -231 0 0 50 0 50 228 -2 227 -3 3 -47z m9212 2 l0 -50 -4335 0 -4335 0
0 50 0 50 4335 0 4335 0 0 -50z m-9220 -245 l0 -115 -265 0 -265 0 0 115 0
115 265 0 265 0 0 -115z m10 -550 l0 -345 -500 0 -500 0 0 345 0 345 500 0
500 0 0 -345z m460 0 l0 -345 -195 0 -195 0 0 345 0 345 195 0 195 0 0 -345z
m7780 0 l0 -345 -3850 0 -3850 0 0 345 0 345 3850 0 3850 0 0 -345z m640 0 l0
-345 -280 0 -280 0 0 345 0 345 280 0 280 0 0 -345z m230 0 l0 -345 -75 0 -75
0 0 345 0 345 75 0 75 0 0 -345z m-560 -645 l0 -209 -147 -3 -148 -3 -2 -40
c-1 -22 -2 -52 -2 -67 l-1 -28 -3790 0 -3790 0 0 70 0 70 -130 0 -130 0 0 210
0 210 4070 0 4070 0 0 -210z m-8220 -290 c0 -57 -1 -60 -25 -60 -24 0 -25 3
-25 60 0 57 1 60 25 60 24 0 25 -3 25 -60z m8310 0 c0 -57 -1 -60 -25 -60 -24
0 -25 3 -25 60 0 57 1 60 25 60 24 0 25 -3 25 -60z"/>
<path d="M6830 11740 l0 -7160 40 0 40 0 0 7160 0 7160 -40 0 -40 0 0 -7160z"/>
<path d="M17580 11740 l0 -7160 40 0 40 0 0 7160 0 7160 -40 0 -40 0 0 -7160z"/>
<path d="M8470 18025 l0 -255 -177 -2 -178 -3 -3 -2572 -2 -2573 -480 0 -480
0 0 -525 0 -525 480 0 480 0 2 -2667 3 -2668 198 -3 197 -2 0 -785 0 -785 63
3 62 2 3 782 2 782 143 3 142 3 3 993 2 992 3780 0 3780 0 0 -995 0 -995 145
0 145 0 0 -785 0 -785 60 0 60 0 0 785 0 785 183 2 182 3 3 2668 2 2667 105 0
105 0 0 525 0 525 -105 0 -105 0 -2 2573 -3 2572 -177 3 -178 2 0 245 0 245
-62 -3 -63 -2 -3 -242 -2 -243 -145 0 -145 0 0 -1020 0 -1020 -3780 0 -3780 0
-2 1018 -3 1017 -162 3 -163 2 0 255 0 255 -65 0 -65 0 0 -255z m380 -2915 l0
-2570 3860 0 3860 0 0 2570 0 2570 310 0 310 0 0 -2570 0 -2570 105 0 105 0 0
-440 0 -440 -105 0 -105 0 0 -2670 0 -2670 -310 0 -310 0 0 2670 0 2670 -3860
0 -3860 0 0 -2670 0 -2670 -330 0 -330 0 0 2670 0 2670 -480 0 -480 0 0 440 0
440 480 0 480 0 0 2570 0 2570 330 0 330 0 0 -2570z m7638 328 l2 -208 -3780
0 -3780 0 0 210 0 210 3778 -2 3777 -3 3 -207z m2 -1558 l0 -1260 -3780 0
-3780 0 0 1260 0 1260 3780 0 3780 0 0 -1260z m0 -3690 l0 -1380 -3780 0
-3780 0 0 1380 0 1380 3780 0 3780 0 0 -1380z m-20 -1680 l0 -210 -3770 0
-3770 0 0 210 0 210 3770 0 3770 0 0 -210z"/>
</g>
</svg>
