<?xml version="1.0" encoding="UTF-8" standalone="no"?>
<svg
   version="1.0"
   width="2481.000000pt"
   height="3508.000000pt"
   viewBox="0 0 2481.000000 3508.000000"
   preserveAspectRatio="xMidYMid meet"
   id="svg151"
   sodipodi:docname="widgetDinamico11.svg"
   inkscape:version="1.1.1 (3bf5ae0d25, 2021-09-20)"
   xmlns:inkscape="http://www.inkscape.org/namespaces/inkscape"
   xmlns:sodipodi="http://sodipodi.sourceforge.net/DTD/sodipodi-0.dtd"
   xmlns="http://www.w3.org/2000/svg"
   xmlns:svg="http://www.w3.org/2000/svg">
  <defs
     id="defs155">
    <linearGradient
       id="linearGradient12565"
       inkscape:swatch="solid">
      <stop
         style="stop-color:#be9625;stop-opacity:1;"
         offset="0"
         id="stop12563" />
    </linearGradient>
    <linearGradient
       id="linearGradient12522"
       inkscape:swatch="solid">
      <stop
         style="stop-color:#be9625;stop-opacity:1;"
         offset="0"
         id="stop12520" />
    </linearGradient>
  </defs>
  <sodipodi:namedview
     id="namedview153"
     pagecolor="#ffffff"
     bordercolor="#666666"
     borderopacity="1.0"
     inkscape:pageshadow="2"
     inkscape:pageopacity="0.0"
     inkscape:pagecheckerboard="0"
     inkscape:document-units="pt"
     showgrid="false"
     inkscape:zoom="0.22627417"
     inkscape:cx="1725.7825"
     inkscape:cy="2313.565"
     inkscape:window-width="2400"
     inkscape:window-height="1321"
     inkscape:window-x="-9"
     inkscape:window-y="-4"
     inkscape:window-maximized="1"
     inkscape:current-layer="g149" />
  <g
     transform="translate(0.000000,3508.000000) scale(0.100000,-0.100000)"
     fill="#000000"
     stroke="none"
     id="g149">
    <path
       d="M11500 32160 l0 -640 -65 0 -65 0 0 -1910 0 -1910 -310 0 -310 0 0 -1800 0 -1800 -1145 0 -1145 0 0 -345 0 -345 150 0 150 0 0 -520 0 -520 1305 0 1305 0 0 -3825 0 -3825 -365 0 -365 0 0 1135 0 1135 -35 0 -35 0 0 265 0 265 -75 0 -75 0 0 315 0 315 -155 0 -155 0 0 -315 0 -315 -95 0 -95 0 0 -265 0 -265 -70 0 -70 0 0 -1135 0 -1135 -280 0 -280 0 0 -4625 c0 -3077 3 -4625 10 -4625 6 0 10 -32 10 -75 l0 -75 -95 0 -95 0 0 115 0 115 -205 0 -205 0 0 -850 0 -850 -115 0 -115 0 0 -140 0 -140 -135 0 -135 0 0 -40 0 -40 3510 0 3510 0 0 40 0 40 -390 0 -390 0 0 130 0 130 -105 0 -105 0 0 770 0 770 -350 0 -350 0 0 140 0 140 -195 0 -195 0 0 -135 0 -135 -350 0 -350 0 0 200 0 200 555 0 555 0 0 2560 0 2560 -535 0 -535 0 0 320 0 320 750 0 750 0 -2 1588 -3 1587 -747 3 -748 2 0 3825 0 3825 815 0 815 0 0 520 0 520 105 0 105 0 -2 343 -3 342 -587 3 -588 2 0 1800 0 1800 -327 2 -328 3 -3 1908 -2 1907 -90 0 -90 0 0 230 0 230 310 0 310 0 0 105 0 105 245 0 245 0 -2 168 -3 167 -552 3 -553 2 0 135 0 135 -370 0 -370 0 0 -640z m660 -45 l0 -595 -290 0 -290 0 0 595 0 595 290 0 290 0 0 -595z m1140 240 l0 -125 -525 0 -525 0 0 125 0 125 525 0 525 0 0 -125z m-485 -270 l0 -60 -295 0 -295 0 -3 49 c-5 82 -27 77 300 74 l293 -3 0 -60z m-475 -4320 l0 -3665 -445 0 -445 0 0 3665 0 3665 445 0 445 0 0 -3665z m-970 -1905 l0 -1760 -270 0 -270 0 0 1760 0 1760 270 0 270 0 0 -1760z m1630 0 l0 -1760 -290 0 -290 0 0 1760 0 1760 290 0 290 0 0 -1760z m1170 -2105 l0 -265 -2815 0 -2815 0 0 265 0 265 2815 0 2815 0 0 -265z m-2800 -685 l0 -340 -1125 0 -1125 0 0 340 0 340 1125 0 1125 0 0 -340z m970 -4710 l0 -5050 -445 0 -445 0 0 5043 c0 2774 3 5047 7 5050 3 4 204 7 445 7 l438 0 0 -5050z m1340 4710 l0 -340 -630 0 -630 0 0 340 0 340 630 0 630 0 0 -340z m-4642 -67 l2 -353 1165 0 1165 0 0 -100 0 -100 -1265 0 -1265 0 0 455 0 456 98 -3 97 -3 3 -352z m4927 -98 l0 -450 -770 0 -770 0 -3 98 -3 97 671 0 670 0 0 348 c0 192 3 352 7 356 4 4 50 5 103 4 l95 -3 0 -450z m-3585 -5090 l0 -295 -115 0 -115 0 0 295 0 295 115 0 115 0 0 -295z m100 -600 l0 -225 -237 2 -238 3 -3 223 -2 222 240 0 240 0 0 -225z m80 -1400 l0 -1095 -350 0 -350 0 0 1095 0 1095 350 0 350 0 0 -1095z m450 -2490 l0 -1315 -855 0 -855 0 0 1308 c0 720 3 1312 7 1315 3 4 388 7 855 7 l848 0 0 -1315z m360 650 l0 -665 -140 0 -140 0 0 658 c0 362 3 662 7 665 3 4 66 7 140 7 l133 0 0 -665z m2468 -2 l2 -663 -710 0 -710 0 0 658 c0 362 3 662 7 665 3 4 322 6 707 5 l701 -3 3 -662z m-2468 -1573 l0 -780 -139 0 -139 0 -1 780 -1 780 140 0 140 0 0 -780z m970 -360 l0 -1140 -445 0 -445 0 0 1140 0 1140 445 0 445 0 0 -1140z m1500 360 l0 -780 -710 0 -710 0 0 780 0 780 710 0 710 0 0 -780z m-2830 -635 l0 -165 -855 0 -855 0 0 158 c0 87 3 162 7 165 3 4 388 7 855 7 l848 0 0 -165z m360 -545 l0 -320 -135 0 -135 0 0 320 0 320 135 0 135 0 0 -320z m-360 135 l0 -165 -852 2 -853 3 -3 150 c-1 82 0 155 2 162 4 11 169 13 856 13 l850 0 0 -165z m0 -570 l0 -325 -852 2 -853 3 -3 323 -2 322 855 0 855 0 0 -325z m360 -2440 l0 -2475 -135 0 -135 0 0 2475 0 2475 135 0 135 0 0 -2475z m2040 -6 l0 -2481 -977 7 -978 6 -3 2475 -2 2474 980 0 980 0 0 -2481z m-2400 1691 l0 -350 -855 0 -855 0 0 350 0 350 855 0 855 0 0 -350z m0 -850 l0 -420 -855 0 -855 0 0 413 c0 228 3 417 7 420 3 4 388 7 855 7 l848 0 0 -420z m0 -925 l0 -425 -852 2 -853 3 -3 410 c-1 225 0 416 3 422 3 10 183 13 855 13 l850 0 0 -425z m0 -845 l0 -330 -855 0 -855 0 0 323 c0 178 3 327 7 330 3 4 388 7 855 7 l848 0 0 -330z m0 -775 l0 -365 -855 0 -855 0 0 358 c0 197 3 362 7 365 3 4 388 7 855 7 l848 0 0 -365z m0 -770 l0 -315 -852 2 -853 3 -3 313 -2 312 855 0 855 0 0 -315z m1330 -240 l0 -195 -400 0 -400 0 0 195 0 195 400 0 400 0 0 -195z m-840 -145 l0 -300 -200 0 -200 0 0 300 0 300 200 0 200 0 0 -300z m-2490 -800 l0 -830 -165 0 -165 0 0 830 0 830 165 0 165 0 0 -830z m2000 645 l0 -145 -675 0 -675 0 0 -180 0 -180 35 0 35 0 0 -235 0 -235 110 0 110 0 0 235 0 235 65 0 65 0 0 -235 0 -235 110 0 110 0 0 235 0 235 70 0 70 0 0 -235 0 -235 110 0 110 0 0 235 0 235 245 0 245 0 0 -235 0 -235 110 0 110 0 0 235 0 235 65 0 65 0 0 -85 c0 -78 4 -95 46 -201 46 -113 67 -141 85 -113 5 8 9 137 9 287 l0 272 300 0 300 0 0 -280 c0 -248 2 -281 16 -287 21 -8 25 0 79 136 37 93 45 126 45 178 l0 63 350 0 350 0 0 -190 0 -190 195 0 195 0 0 360 0 360 240 0 240 0 0 -650 0 -650 -120 0 -120 0 0 -130 0 -130 -600 0 -600 0 0 150 0 150 -235 0 -235 0 0 425 c0 421 0 425 20 425 20 0 21 5 18 103 l-3 102 -147 3 -148 3 0 -106 c0 -98 1 -105 20 -105 20 0 20 -7 20 -425 l0 -425 -247 -2 -248 -3 -3 -147 -3 -148 -1064 0 -1065 0 0 140 0 140 -70 0 -70 0 0 590 0 590 95 0 94 0 3 -97 3 -98 58 -3 57 -3 0 321 0 320 825 0 825 0 0 -145z m1329 -292 l0 -358 -29 -70 -29 -70 0 243 -1 242 -345 0 -345 0 6 -242 c4 -163 3 -240 -3 -233 -6 6 -20 36 -32 68 -20 55 -21 76 -21 417 l0 360 400 0 400 0 -1 -357z m741 47 l0 -250 -345 0 -345 0 0 250 0 250 345 0 345 0 0 -250z m1045 -500 l0 -745 -67 -3 -68 -3 0 671 0 670 -260 0 -260 0 0 80 0 80 328 -2 327 -3 0 -745z m-4885 600 l0 -100 -95 0 -95 0 0 100 0 100 95 0 95 0 0 -100z m2210 -178 l0 -139 -872 2 -873 2 -3 123 c-1 68 0 130 2 137 4 11 169 13 876 13 l870 0 0 -138z m1018 -1304 l3 -128 -551 0 -550 0 0 130 0 130 548 -2 547 -3 3 -127z m-3320 -5 l-3 -118 -342 -3 -343 -2 0 120 0 120 345 0 346 0 -3 -117z m5182 -13 l0 -110 -287 2 -288 3 -3 108 -3 107 291 0 290 0 0 -110z"
       id="path147"
       style="fill:#000000" />
    <path
       style="fill:#cbcbcb;stroke:none;stroke-width:3.125;fill-opacity:1"
       d="m 1529.6875,2230.0964 v -669.9036 l 11.7188,-1.937 c 6.4453,-1.0654 32.4609,-1.9525 57.8125,-1.9714 l 46.0937,-0.034 V 2228.125 2900 H 1587.5 1529.6875 Z"
       id="path6127"
       transform="matrix(7.5,0,0,-7.5,0,35080)" />
    <path
       style="fill:#f0c000;stroke:none;stroke-width:3.125;fill-opacity:1"
       d="m 1529.3773,2288.2813 c -0.3423,-675.1135 -0.15,-723.3216 2.8969,-726.2112 1.1554,-1.0959 27.0617,-2.9818 57.5696,-4.191 l 55.4687,-2.1985 V 2227.8403 2900 H 1587.5 1529.6875 Z"
       id="path9644"
       transform="matrix(7.5,0,0,-7.5,0,35080)" />
    <path
       style="fill:#f0c000;stroke:none;stroke-width:4.41942;fill-opacity:1"
       d="M 1526.9087,976.69124 V 490.55533 h 57.4524 57.4525 v 486.13591 486.13596 h -57.4525 -57.4524 z"
       id="path34378"
       transform="matrix(7.5,0,0,-7.5,0,35080)" />
    <path
       style="fill:#f0c000;stroke:none;stroke-width:4.41942;fill-opacity:1"
       d="M 1447.3592,1230.8077 V 998.78833 h 33.1456 33.1457 v 232.01937 232.0195 h -33.1457 -33.1456 z"
       id="path34417"
       transform="matrix(7.5,0,0,-7.5,0,35080)" />
    <path
       style="fill:#f0c000;stroke:none;stroke-width:4.41942;fill-opacity:1"
       d="M 1659.4912,1230.8077 V 998.78833 h 35.3554 35.3553 v 232.01937 232.0195 h -35.3553 -35.3554 z"
       id="path34456"
       transform="matrix(7.5,0,0,-7.5,0,35080)" />
    <path
       style="fill:#f0c000;stroke:none;stroke-width:4.41942;fill-opacity:1"
       d="m 1142.4194,1509.231 v -33.1456 h 373.4408 373.4407 v 33.1456 33.1457 h -373.4407 -373.4408 z"
       id="path34495"
       transform="matrix(7.5,0,0,-7.5,0,35080)" />
    <path
       style="fill:#f0c000;stroke:none;stroke-width:4.41942;fill-opacity:1"
       d="m 1244.066,2901.3475 v -174.567 h 110.4854 110.4855 v 174.567 174.567 H 1354.5514 1244.066 Z"
       id="path34785"
       transform="matrix(7.5,0,0,-7.5,0,35080)" />
    <path
       style="fill:#f0c000;stroke:none;stroke-width:1.10485;fill-opacity:1"
       d="m 1544.034,394.98543 v -78.99709 h 38.1174 38.1175 v 78.99709 78.99709 h -38.1175 -38.1174 z"
       id="path35407"
       transform="matrix(7.5,0,0,-7.5,0,35080)" />
    <path
       style="fill:#f0c000;stroke:none;stroke-width:1.10485;fill-opacity:1"
       d="m 1633.5272,362.94465 v -16.02038 h 69.6058 69.6058 v 16.02038 16.02039 h -69.6058 -69.6058 z"
       id="path35446"
       transform="matrix(7.5,0,0,-7.5,0,35080)" />
    <path
       style="fill:#f0c000;stroke:none;stroke-width:1.10485;fill-opacity:1"
       d="m 1630.4361,399.68791 c 0.3182,-6.67312 0.4372,-6.92152 3.6435,-7.60326 4.5475,-0.96693 44.7195,-1.12723 61.1459,-0.24399 l 13.4318,0.72221 v 7.01177 7.01176 h -39.2751 -39.275 z"
       id="path35485"
       transform="matrix(7.5,0,0,-7.5,0,35080)" />
    <path
       style="fill:#f0c000;stroke:none;stroke-width:3.125;fill-opacity:1"
       d="m 1179.6875,1623.4375 v -57.8125 h 12.5 12.5 v 46.875 46.875 h 154.6875 154.6875 v 10.9375 10.9375 H 1346.875 1179.6875 Z"
       id="path35524"
       transform="matrix(7.5,0,0,-7.5,0,35080)" />
    <path
       style="fill:#f0c000;stroke:none;stroke-width:3.125;fill-opacity:1"
       d="m 1657.8125,1670.3125 v -10.9375 h 89.0625 89.0625 v -46.875 -46.875 h 12.5 12.5 v 57.8125 57.8125 H 1759.375 1657.8125 Z"
       id="path35563"
       transform="matrix(7.5,0,0,-7.5,0,35080)" />
    <path
       style="fill:#f0c000;stroke:none;stroke-width:3.125;fill-opacity:1"
       d="M 1317.1875,2568.75 V 2425 h 45.3125 45.3125 v 143.75 143.75 H 1362.5 1317.1875 Z"
       id="path35602"
       transform="matrix(7.5,0,0,-7.5,0,35080)" />
    <path
       style="fill:#f0c000;stroke:none;stroke-width:3.125;fill-opacity:1"
       d="m 1335.9375,2381.25 v -28.125 h 29.6875 29.6875 v 28.125 28.125 h -29.6875 -29.6875 z"
       id="path35641"
       transform="matrix(7.5,0,0,-7.5,0,35080)" />
    <path
       style="fill:#f0c000;stroke:none;stroke-width:3.125;fill-opacity:1"
       d="m 1354.6875,2303.125 v -37.5 h 14.0625 14.0625 v 37.5 37.5 h -14.0625 -14.0625 z"
       id="path35680"
       transform="matrix(7.5,0,0,-7.5,0,35080)" />
    <path
       style="fill:none;stroke:none;stroke-width:3.125;fill-opacity:1"
       d="M 1657.8125,2814.0625 V 2728.125 H 1750 h 92.1875 v 76.1719 c 0,41.8945 0.8789,80.5664 1.9531,85.9375 l 1.9532,9.7656 h -94.1407 -94.1406 z"
       id="path35719"
       transform="matrix(7.5,0,0,-7.5,0,35080)" />
    <path
       style="fill:none;stroke:none;stroke-width:3.125;fill-opacity:1"
       d="m 1479.6875,2814.0625 v -85.9375 h 17.1875 17.1875 V 2814.0625 2900 h -17.1875 -17.1875 z"
       id="path35758"
       transform="matrix(7.5,0,0,-7.5,0,35080)" />
    <path
       style="fill:#f0c000;stroke:none;stroke-width:3.125;fill-opacity:1"
       d="m 1529.6875,3071.875 v -150 h 57.8125 57.8125 v 150 150 H 1587.5 1529.6875 Z"
       id="path35797"
       transform="matrix(7.5,0,0,-7.5,0,35080)" />
    <path
       style="fill:none;stroke:none;stroke-width:3.125;fill-opacity:1"
       d="M 1657.8125,3023.4375 V 2921.875 h 93.75 93.75 V 3023.4375 3125 h -93.75 -93.75 z"
       id="path35836"
       transform="matrix(7.5,0,0,-7.5,0,35080)" />
    <path
       style="fill:none;stroke:none;stroke-width:3.125;fill-opacity:1"
       d="M 1479.6875,3023.4375 V 2921.875 h 17.1875 17.1875 V 3023.4375 3125 h -17.1875 -17.1875 z"
       id="path35875"
       transform="matrix(7.5,0,0,-7.5,0,35080)" />
    <path
       style="fill:none;stroke:none;stroke-width:3.125;fill-opacity:1"
       d="m 1482.8125,3181.25 v -40.625 h 15.625 15.625 v 40.625 40.625 h -15.625 -15.625 z"
       id="path35914"
       transform="matrix(7.5,0,0,-7.5,0,35080)" />
    <path
       style="fill:#f0c000;stroke:none;stroke-width:3.125;fill-opacity:1"
       d="M 1242.1875,3107.8125 V 3087.5 h 112.5 112.5 v 20.3125 20.3125 h -112.5 -112.5 z"
       id="path35953"
       transform="matrix(7.5,0,0,-7.5,0,35080)" />
    <path
       style="fill:#f0c000;fill-opacity:1;stroke:none;stroke-width:23.4375"
       d="m 9316.4062,11349.531 v 152.344 h 843.7498 843.75 v -152.344 -152.344 h -843.75 -843.7498 z"
       id="path35992" />
    <path
       style="fill:#f0c000;stroke:none;stroke-width:3.125;fill-opacity:1"
       d="m 1242.1875,3239.0625 v -42.1875 h 112.5 112.5 v 42.1875 42.1875 h -112.5 -112.5 z"
       id="path36031"
       transform="matrix(7.5,0,0,-7.5,0,35080)" />
    <path
       style="fill:#f0c000;stroke:none;stroke-width:3.125;fill-opacity:1"
       d="M 1242.1875,3339.0625 V 3293.75 h 112.5 112.5 v 45.3125 45.3125 h -112.5 -112.5 z"
       id="path36070"
       transform="matrix(7.5,0,0,-7.5,0,35080)" />
    <path
       style="fill:#f0c000;stroke:none;stroke-width:3.125;fill-opacity:1"
       d="M 1529.6875,3565.625 V 3237.5 h 128.125 128.125 v 328.125 328.125 h -128.125 -128.125 z"
       id="path36146"
       transform="matrix(7.5,0,0,-7.5,0,35080)" />
    <path
       style="mix-blend-mode:normal;fill:#f0c000;fill-opacity:1;stroke:none;stroke-width:3.125"
       d="M 1242.1875,3454.6875 V 3400 h 112.5 112.5 v 54.6875 54.6875 h -112.5 -112.5 z"
       id="path36222"
       transform="matrix(7.5,0,0,-7.5,0,35080)" />
    <path
       style="fill:#f0c000;stroke:none;stroke-width:3.125;fill-opacity:1"
       d="m 1242.1875,3576.5625 v -54.6875 h 112.5 112.5 v 54.6875 54.6875 h -112.5 -112.5 z"
       id="path36261"
       transform="matrix(7.5,0,0,-7.5,0,35080)" />
    <path
       style="fill:#f0c000;stroke:none;stroke-width:3.125;fill-opacity:1"
       d="m 1242.1875,3689.0625 v -42.1875 h 112.5 112.5 v 42.1875 42.1875 h -112.5 -112.5 z"
       id="path36337"
       transform="matrix(7.5,0,0,-7.5,0,35080)" />
    <path
       style="fill:#f0c000;stroke:none;stroke-width:3.125;fill-opacity:1"
       d="m 1242.1875,3793.75 v -46.875 h 112.5 112.5 v 46.875 46.875 h -112.5 -112.5 z"
       id="path36376"
       transform="matrix(7.5,0,0,-7.5,0,35080)" />
    <path
       style="fill:#f0c000;stroke:none;stroke-width:3.125;fill-opacity:1"
       d="M 1242.1875,3895.3125 V 3856.25 h 112.5 112.5 v 39.0625 39.0625 h -112.5 -112.5 z"
       id="path36415"
       transform="matrix(7.5,0,0,-7.5,0,35080)" />
    <path
       style="fill:#f0c000;stroke:none;stroke-width:3.125;fill-opacity:1"
       d="M 1157.8125,4053.125 V 3943.75 h 20.3125 20.3125 v 109.375 109.375 h -20.3125 -20.3125 z"
       id="path36454"
       transform="matrix(7.5,0,0,-7.5,0,35080)" />
    <path
       style="fill:#f0c000;stroke:none;stroke-width:3.125;fill-opacity:1"
       d="m 1129.6875,4185.9375 v -14.0625 h 43.75 43.75 V 4185.9375 4200 h -43.75 -43.75 z"
       id="path36493"
       transform="matrix(7.5,0,0,-7.5,0,35080)" />
    <path
       style="fill:#a0a0a0;stroke:none;stroke-width:3.125"
       d="m 1230.5386,3987.5 c 0,-7.7344 0.6095,-10.8984 1.3543,-7.0312 0.7449,3.8671 0.7449,10.1953 0,14.0625 -0.7448,3.8671 -1.3543,0.7031 -1.3543,-7.0313 z"
       id="path36532"
       transform="matrix(7.5,0,0,-7.5,0,35080)" />
    <path
       style="fill:#a0a0a0;stroke:none;stroke-width:3.125"
       d=""
       id="path36608"
       transform="matrix(7.5,0,0,-7.5,0,35080)" />
    <path
       style="fill:#f0c000;stroke:none;stroke-width:0.78125;fill-opacity:1"
       d="m 1207.4219,3986.7188 v -13.2813 h 12.2122 12.2123 l -0.6325,3.3203 c -0.7867,4.1307 -0.7776,17.2924 0.014,20.7032 l 0.5896,2.539 h -12.1981 -12.198 z"
       id="path36686"
       transform="matrix(7.5,0,0,-7.5,0,35080)" />
    <path
       style="fill:#f0c000;stroke:none;stroke-width:0.78125;fill-opacity:1"
       d="m 1399.0234,4028.3204 -104.8828,-0.201 v -17.096 -17.096 l 2.5391,-0.5219 c 1.3965,-0.2871 53.6035,-0.7184 116.0156,-0.9585 l 113.4766,-0.4365 v 18.4479 18.4479 l -11.1328,-0.1925 c -6.1231,-0.1058 -58.3301,-0.2829 -116.0157,-0.3934 z"
       id="path36725"
       transform="matrix(7.5,0,0,-7.5,0,35080)" />
    <path
       style="fill:none;stroke:none;stroke-width:0.78125;fill-opacity:1"
       d="m 1480.0781,3946.4844 v -39.4531 h 26.5625 26.5625 v 39.4531 39.4531 h -26.5625 -26.5625 z"
       id="path36764"
       transform="matrix(7.5,0,0,-7.5,0,35080)" />
    <path
       style="fill:#f0c000;stroke:none;stroke-width:0.78125;fill-opacity:1"
       d="m 1538.6719,3927.3438 v -25.7813 h 53.125 53.125 v 25.7813 25.7812 h -53.125 -53.125 z"
       id="path36803"
       transform="matrix(7.5,0,0,-7.5,0,35080)" />
    <path
       style="fill:#f0c000;stroke:none;stroke-width:0.78125;fill-opacity:1"
       d="m 1543.0655,4064.6485 c -1.1177,-2.6856 -2.3631,-6.4649 -2.7675,-8.3985 -0.4043,-1.9336 -0.9875,-24.5215 -1.2958,-50.1953 l -0.5606,-46.6797 h 53.2401 53.2402 v 46.9908 46.9908 l -3.3203,8.1833 -3.3203,8.1833 -0.2043,-30.9553 -0.2043,-30.9554 h -46.393 -46.393 l 0.4263,30.8594 c 0.2344,16.9726 0.2369,30.8594 0.01,30.8594 -0.2314,0 -1.3353,-2.1973 -2.453,-4.8828 z"
       id="path36842"
       transform="matrix(7.5,0,0,-7.5,0,35080)" />
    <path
       style="fill:#f0c000;stroke:none;stroke-width:0.78125;fill-opacity:1"
       d="m 1652.7344,4000 v -32.8125 h 45.3125 45.3125 V 4000 v 32.8125 h -45.3125 -45.3125 z"
       id="path36881"
       transform="matrix(7.5,0,0,-7.5,0,35080)" />
    <path
       style="fill:#f0c000;stroke:none;stroke-width:0.78125;fill-opacity:1"
       d="M 1866.0156,4076.9531 V 3987.5 h -34.7656 -34.7656 v -10.1562 -10.1563 h 33.3984 c 18.3692,0 37.8809,0.2318 43.3594,0.5112 l 9.9609,0.508 v 98.5918 98.5917 l -6.4453,0.5018 c -3.5449,0.2759 -7.4121,0.5038 -8.5937,0.5064 h -2.1485 z"
       id="path36920"
       transform="matrix(7.5,0,0,-7.5,0,35080)" />
    <path
       style="fill:#f0c000;stroke:none;stroke-width:2.20971;fill-opacity:1"
       d="m 1516.965,4184.0834 v -16.5728 h 71.8156 71.8155 v 16.5728 16.5728 h -71.8155 -71.8156 z"
       id="path36959"
       transform="matrix(7.5,0,0,-7.5,0,35080)" />
    <path
       style="fill:#f0c000;stroke:none;stroke-width:2.20971;fill-opacity:1"
       d="M 1835.1631,4186.2931 V 4171.93 h 37.565 37.5651 v 14.3631 14.3631 h -37.5651 -37.565 z"
       id="path36998"
       transform="matrix(7.5,0,0,-7.5,0,35080)" />
    <path
       style="fill:none;stroke:none;stroke-width:2.20971;fill-opacity:1"
       d="m 1481.6097,3564.2601 v -329.2466 h 16.5728 16.5728 v 329.2466 329.2466 h -16.5728 -16.5728 z"
       id="path37037"
       transform="matrix(7.5,0,0,-7.5,0,35080)" />
  </g>
</svg>
