<?xml version="1.0" standalone="no"?>
<!DOCTYPE svg PUBLIC "-//W3C//DTD SVG 20010904//EN"
 "http://www.w3.org/TR/2001/REC-SVG-20010904/DTD/svg10.dtd">
<svg version="1.0" xmlns="http://www.w3.org/2000/svg"
 width="2481.000000pt" height="3508.000000pt" viewBox="0 0 2481.000000 3508.000000"
 preserveAspectRatio="xMidYMid meet">

<g transform="translate(0.000000,3508.000000) scale(0.100000,-0.100000)"
fill="#000000" stroke="none">
<path d="M11110 32225 l0 -655 450 0 450 0 0 -555 0 -555 -1750 0 -1750 0 0
-1280 0 -1280 -435 0 -435 0 0 -2105 0 -2105 -968 0 c-533 0 -1678 -3 -2545
-7 l-1577 -6 0 -354 0 -353 2980 0 2980 0 0 -160 0 -160 1750 0 1750 0 0
-8735 0 -8735 -3625 0 -3625 0 0 -545 0 -545 3685 0 3685 0 0 -145 0 -145 210
0 210 0 0 145 0 145 35 0 35 0 0 -145 0 -145 210 0 210 0 0 145 0 145 2730 0
2730 0 0 545 0 545 -50 0 -50 0 0 540 0 540 240 0 240 0 2 -412 3 -413 40 0
40 0 3 3368 2 3367 -215 0 -215 0 -2 1438 -3 1437 -1112 3 -1113 2 0 -1440 0
-1440 -985 0 -985 0 0 30 0 30 728 2 727 3 3 103 3 102 144 0 145 0 0 790 0
790 -95 0 -95 0 0 305 0 305 -40 0 -40 0 0 210 0 210 -40 0 -40 0 0 1135 0
1135 -80 0 -80 0 0 225 0 225 -35 0 -35 0 0 355 0 355 -197 -2 -198 -3 -3
-352 -2 -353 -80 0 -80 0 0 -225 0 -225 -50 0 -50 0 0 -1134 0 -1135 -37 -3
-38 -3 -3 -167 -2 -168 -215 0 -215 0 0 8430 0 8430 275 0 275 0 0 655 0 655
-1890 0 -1890 0 0 -655z m3700 5 l0 -570 -1810 0 -1810 0 0 570 0 570 1810 0
1810 0 0 -570z m-550 -13855 l0 -13195 -1085 0 -1085 0 0 13195 0 13195 1085
0 1085 0 0 -13195z m-2252 8183 l-3 -3823 -1707 -3 -1708 -2 0 120 0 120 265
0 265 0 0 250 0 250 -265 0 -265 0 0 1965 0 1965 265 0 265 0 0 250 0 250
-265 0 -265 0 0 1240 0 1240 1710 0 1710 0 -2 -3822z m-3888 -1123 l0 -2385
-2745 0 -2745 0 0 273 0 274 1733 6 c952 4 2098 7 2545 7 l812 0 0 1633 c0
897 3 1845 7 2105 l6 472 194 0 193 0 0 -2385z m920 2215 l0 -170 -420 0 -420
0 0 170 0 170 420 0 420 0 0 -170z m-530 -2215 l0 -1955 -155 0 -155 0 0 1955
0 1955 155 0 155 0 0 -1955z m530 -2215 l0 -170 -420 0 -420 0 0 170 0 170
420 0 420 0 0 -170z m6388 -5137 l2 -313 -115 0 -115 0 0 315 0 316 113 -3
112 -3 3 -312z m70 -580 l2 -183 -235 0 -235 0 0 178 c0 98 3 182 7 186 4 3
108 5 232 4 l226 -3 3 -182z m160 -1361 l2 -1092 -365 0 -365 0 0 1088 c0 599
2 1091 4 1093 3 2 166 4 363 3 l358 -1 3 -1091z m2800 -1829 l2 -653 -1035 0
-1035 0 0 648 c0 357 3 652 7 655 3 4 468 6 1032 5 l1026 -3 3 -652z m-2718
442 l0 -205 40 0 40 0 0 -310 0 -310 95 0 95 0 0 -705 0 -705 -150 0 -150 0 0
-100 0 -100 -685 0 -685 0 0 1150 0 1150 260 0 260 0 0 170 0 170 440 0 440 0
0 -205z m2718 -1987 l2 -808 -1035 0 -1035 0 0 803 c0 442 3 807 7 810 3 4
468 6 1032 5 l1026 -3 3 -807z m-2148 -783 l0 -105 1110 0 1109 0 3 103 3 102
173 3 172 2 0 -2870 0 -2870 -1420 0 -1420 0 0 2565 0 2565 -850 0 -850 0 0
298 c0 164 3 302 7 305 3 4 447 7 985 7 l978 0 0 -105z m-352 -3112 l2 -2523
-810 0 -810 0 0 2518 c0 1385 3 2522 7 2525 3 4 367 6 807 5 l801 -3 3 -2522z
m-3 -3543 l0 -935 -205 0 -205 0 -3 925 c-1 509 0 931 3 938 3 10 51 12 207
10 l203 -3 0 -935z m-495 380 l0 -530 -515 0 -515 0 0 -30 c0 -29 -2 -30 -45
-30 l-45 0 0 560 0 560 560 0 560 0 0 -530z m2860 -40 l0 -570 50 0 50 0 -2
-462 -3 -463 -255 0 -255 0 -1 390 c0 215 -1 537 -2 718 l-2 327 -740 0 -740
0 0 -215 0 -215 -190 0 -190 0 0 530 0 530 1140 0 1140 0 0 -570z m-1468 -174
c-137 -74 -242 -180 -307 -310 l-35 -69 0 207 0 206 203 0 202 0 -63 -34z
m968 -128 l0 -162 -30 48 c-63 99 -164 189 -277 246 l-58 30 183 0 182 0 0
-162z m-415 88 c180 -69 312 -202 381 -381 36 -93 45 -275 19 -375 -54 -209
-221 -386 -425 -451 -89 -29 -234 -35 -329 -15 -121 26 -213 77 -311 176 -99
98 -150 190 -176 311 -20 95 -14 240 15 329 63 198 231 361 436 422 47 14 87
17 190 14 113 -2 139 -6 200 -30z m-12205 -388 c-89 -44 -187 -143 -227 -228
-108 -230 -50 -476 152 -637 l40 -32 -162 -1 -163 0 0 465 0 465 213 0 212 0
-65 -32z m8595 -8 l0 -35 -312 -3 -313 -2 -2 -178 -3 -177 -62 -3 -63 -3 0
171 0 170 -210 0 -210 0 0 -171 0 -170 -37 3 -38 3 -3 168 -2 167 -205 0 -205
0 0 -170 0 -170 -80 0 -80 0 -2 -242 -3 -243 -3132 -3 c-1723 -1 -3133 1
-3132 5 0 5 24 26 52 48 66 52 132 152 159 238 17 57 20 87 16 178 -4 103 -7
113 -46 192 -50 101 -135 187 -233 236 l-62 31 4104 -2 4104 -3 0 -35z m1665
-255 l0 -295 -475 0 -475 0 0 295 0 295 475 0 475 0 0 -295z m920 0 l0 -295
-170 0 -170 0 0 295 0 295 170 0 170 0 0 -295z m-10874 224 c210 -38 355 -227
341 -446 -9 -155 -101 -288 -244 -356 -64 -30 -75 -32 -178 -32 -104 0 -114 2
-177 33 -273 133 -330 486 -111 693 102 96 229 134 369 108z m8892 -176 l-3
-188 -257 -3 -258 -2 0 190 0 190 260 0 260 0 -2 -187z m-638 -23 l0 -110
-255 0 -255 0 0 110 0 110 255 0 255 0 0 -110z m-1300 -430 l0 -520 -125 0
-125 0 0 520 0 520 125 0 125 0 0 -520z m500 0 l0 -520 -125 0 -125 0 0 520 0
520 125 0 125 0 0 -520z m840 210 l0 -30 315 0 315 0 0 -75 0 -75 515 0 515 0
0 -60 0 -60 290 0 290 0 0 60 0 60 190 0 190 0 0 -130 0 -130 -1622 2 -1623 3
-3 233 -2 232 315 0 315 0 0 -30z m2804 -179 c45 -61 131 -142 192 -181 l48
-30 -167 0 -167 0 0 188 0 187 30 -58 c16 -32 45 -80 64 -106z m-4474 -51 l0
-200 -40 0 -40 0 0 200 0 200 40 0 40 0 0 -200z m490 0 l0 -200 -35 0 -35 0 0
200 0 200 35 0 35 0 0 -200z m470 0 l0 -200 -25 0 -25 0 0 200 0 200 25 0 25
0 0 -200z m4727 -157 c-2 -2 -66 -2 -142 -1 l-138 3 54 35 c65 42 157 133 195
195 l29 45 3 -136 c1 -75 1 -139 -1 -141z"/>
<path d="M9600 28305 l0 -1745 1055 0 1055 0 0 1745 0 1745 -1055 0 -1055 0 0
-1745z m2028 3 l-3 -1663 -972 -3 -973 -2 0 1665 0 1665 975 0 975 0 -2 -1662z"/>
<path d="M17094 5076 c-51 -23 -100 -73 -124 -128 -83 -192 116 -391 308 -308
92 40 142 117 142 217 -1 97 -56 181 -142 217 -45 19 -142 20 -184 2z"/>
<path d="M5350 4768 c-103 -52 -131 -181 -58 -264 41 -47 77 -64 135 -64 158
1 233 195 117 301 -57 52 -125 61 -194 27z"/>
</g>
</svg>
